<svg xmlns="http://www.w3.org/2000/svg" fill="none" viewBox="0 0 48 65"><path fill="#fff" fill-rule="evenodd" d="M19.5 26.136c-5.917-.325-9.203-.24-14.989.559-.645-6.605.205-9.883 3.617-15.063-1.743 4.52-2.08 8.883-1.156 12.602 5.012-.03 7.718.194 12.527.634l.224-.634c-3.781-2.041-5.876-3.15-8.016-3.58-.795-9.216-.084-13.872 4.884-20.542-2.966 7.999-3.429 12.143-2.274 18.977l6.189 4.325.484-.56-1.64-1.752c.862-1.324 1.525-1.783 2.87-2.349-.47.526-.66.957-.894 2.126.297.63.502.806.895 1.006h2.46c.55-.19.776-.372 1.082-.783.271-.464.097-.979-.783-2.349 1.143.541 1.777.916 2.833 2.35l-1.603 1.752.522.596 6.152-4.287c.99-6.986.89-11.074-2.312-19.164 5.917 8.845 5.588 12.902 5.051 19.537l-.092 1.155c-1.926.368-3.753 1.216-8.128 3.691l.298.485c4.581-.56 7.362-.66 12.565-.597 1.032-4.029.423-7.014-1.156-12.639 3.494 5.663 4.28 8.957 3.617 15.063-6.222-.968-9.43-.95-15.026-.671l-.149.559c6.609.663 19.686 4.064 19.686 4.064-1.874 16.185-6.453 21.849-13.342 30.37-.838 1.036-1.71 2.114-2.615 3.26.499-.8.984-1.568 1.454-2.313 5.553-8.797 9.08-14.385 10.066-29.565-5.286-2.06-8.842-3.13-15.696-4.959l-.224.373c6.383 3.074 9.924 4.781 12.826 6.413-.45 11.184-2.698 15.593-6.38 22.811l-.63 1.237c.151-.427.299-.839.442-1.24 2.086-5.834 3.383-9.461 3.734-21.988-3.546-2.422-5.728-3.67-8.965-5.52l-1.362-.78-.15.298 5.108 3.69c.207 3.758.254 5.568 0 7.345-1.202 2.627-3.008 4.302-7.792 7.569-3.235-1.596-4.995-2.956-7.904-7.382-.35-2.445-.412-3.99-.15-7.233 1.85-1.729 2.962-2.594 5.072-3.952l-.15-.298c-4.243 2.324-6.47 3.677-10.253 6.151-.003 11.366 1.4 15.897 4.474 23.228-.196-.333-.39-.656-.578-.974-3.498-5.873-5.63-9.452-6.73-22.888l12.752-6.263-.261-.597-.316.077c-6.257 1.512-9.861 2.383-15.157 4.92 1.648 17.538 5.054 22.928 11.52 31.84C5.817 53.873 2.813 47.61 0 30.608l19.648-3.952-.149-.521Zm.67 4.175c-1.242 1.025-1.916 1.617-3.057 2.722-.057 1.983-.014 3.25.335 6.077 1.663 2.823 3.134 4.116 6.227 6.152 3.29-2.324 4.88-3.648 5.965-6.152.378-1.614.481-2.922.447-6.077l-2.945-2.722 1.976 2.908c.139 2.036.087 3.124-.447 4.884-1.636 2.558-2.76 3.506-4.996 4.66-2.319-1.09-3.367-2.11-4.996-4.324-.465-1.563-.563-2.715-.671-4.884l2.162-3.244Z" clip-rule="evenodd"/></svg>